{"title":"Hotel Transylvania 3 A Monster Vacation 2018 1080p HC HDRip x264","magnet":"magnet:?xt=urn:btih:86133857aff8dd1540745e38a4f9d82aa9060822&dn=Hotel+Transylvania+3+A+Monster+Vacation+2018+1080p+HC+HDRip+x264&tr=udp%3A%2F%2Ftracker.leechers-paradise.org%3A6969&tr=udp%3A%2F%2Fzer0day.ch%3A1337&tr=udp%3A%2F%2Fopen.demonii.com%3A1337&tr=udp%3A%2F%2Ftracker.coppersurfer.tk%3A6969&tr=udp%3A%2F%2Fexodus.desync.com%3A6969","uploader":"MFreaky","categoryP":"video","categoryS":"hd___movies","size":"1647809796","seeders":"1","leechers":"0","description":" <a href=\"https://pichub.site/image/E7toT\" rel=\"nofollow\" target=\"_NEW\">https://pichub.site/image/E7toT</a> <a href=\"\nhttps://pichub.site/image/E7iiV\" rel=\"nofollow\" target=\"_NEW\">\nhttps://pichub.site/image/E7iiV</a> <a href=\"\nhttps://pichub.site/image/E7zbN\" rel=\"nofollow\" target=\"_NEW\">\nhttps://pichub.site/image/E7zbN</a> <a href=\"\nhttps://pichub.site/image/E7AcD\" rel=\"nofollow\" target=\"_NEW\">\nhttps://pichub.site/image/E7AcD</a> <a href=\"\nhttps://pichub.site/image/E7BUZ\" rel=\"nofollow\" target=\"_NEW\">\nhttps://pichub.site/image/E7BUZ</a> <a href=\"\nhttps://pichub.site/image/E7K9g\" rel=\"nofollow\" target=\"_NEW\">\nhttps://pichub.site/image/E7K9g</a>\r\n\r\nIMDB  <a href=\"\nhttps://www.imdb.com/title/tt5220122/\" rel=\"nofollow\" target=\"_NEW\">\nhttps://www.imdb.com/title/tt5220122/</a>\r\n\r\nVideo\r\nFormat                                   : AVC\r\nFormat/Info                              : Advanced Video Codec\r\nFormat profile                           : High@L4.1\r\nFormat settings                          : CABAC / 4 Ref Frames\r\nFormat settings, CABAC                   : Yes\r\nFormat settings, RefFrames               : 4 frames\r\nCodec ID                                 : V_MPEG4/ISO/AVC\r\nDuration                                 : 1 h 32 min\r\nBit rate                                 : 2 200 kb/s\r\nWidth                                    : 1 920 pixels\r\nHeight                                   : 1 080 pixels\r\nDisplay aspect ratio                     : 16:9\r\nFrame rate mode                          : Constant\r\nFrame rate                               : 30.000 FPS\r\nColor space                              : YUV\r\nChroma subsampling                       : 4:2:0\r\nBit depth                                : 8 bits\r\nScan type                                : Progressive\r\nBits/(Pixel*Frame)                       : 0.035\r\nStream size                              : 1.41 GiB (92%)\r\nWriting library                          : x264 core 155 r2901 7d0ff22\r\n\r\nAudio\r\nFormat                                   : AAC\r\nFormat/Info                              : Advanced Audio Codec\r\nFormat profile                           : LC\r\nCodec ID                                 : A_AAC-2\r\nDuration                                 : 1 h 32 min\r\nBit rate                                 : 192 kb/s\r\nChannel(s)                               : 2 channels\r\nChannel positions                        : Front: L R\r\nSampling rate                            : 48.0 kHz\r\nFrame rate                               : 46.875 FPS (1024 SPF)\r\nCompression mode                         : Lossy\r\nStream size                              : 128 MiB (8%)\r\nLanguage                                 : English","last_updated":"2018-09-17T12:01:56.695Z","parsed":{"xt":"urn:btih:86133857aff8dd1540745e38a4f9d82aa9060822","dn":"Hotel Transylvania 3 A Monster Vacation 2018 1080p HC HDRip x264","tr":["udp://exodus.desync.com:6969","udp://open.demonii.com:1337","udp://tracker.coppersurfer.tk:6969","udp://tracker.leechers-paradise.org:6969","udp://zer0day.ch:1337"],"infoHash":"86133857aff8dd1540745e38a4f9d82aa9060822","infoHashBuffer":{"type":"Buffer","data":[134,19,56,87,175,248,221,21,64,116,94,56,164,249,216,42,169,6,8,34]},"name":"Hotel Transylvania 3 A Monster Vacation 2018 1080p HC HDRip x264","announce":["udp://exodus.desync.com:6969","udp://open.demonii.com:1337","udp://tracker.coppersurfer.tk:6969","udp://tracker.leechers-paradise.org:6969","udp://zer0day.ch:1337"],"urlList":[]}}